<svg xmlns="http://www.w3.org/2000/svg" fill="none" viewBox="3 -0.98 1235 527.21"><g filter="url(#filter0_d_172_292)"><mask id="path-1-inside-1_172_292" fill="white"><path fill-rule="evenodd" clip-rule="evenodd" d="M158 0.691076C117.493 3.05608 77.363 13.9331 41.756 32.1961C28.977 38.7501 4 54.1661 4 55.4981C4 55.8121 7.262 54.2211 11.25 51.9631C35.666 38.1401 65.324 27.1931 93.533 21.5921C150.571 10.2681 214.874 14.1421 266.5 32.0141C291.476 40.6601 321.74 57.5001 342.5 74.3031C353.006 82.8071 371.947 102.329 380.045 113C392.954 130.011 405.207 152.676 412.659 173.331L416.5 183.976L429.329 183.988L442.159 184L441.473 180.75C438.462 166.493 426.615 137.883 416.538 120.528C398.086 88.7531 369.224 59.6911 336 39.4331C288.408 10.4151 225.596 -3.25592 158 0.691076ZM942.707 45.5331C937.043 47.6121 933.286 50.6471 930.6 55.3151C923.202 68.1721 929.401 84.3691 943.298 88.4961C957.121 92.6011 969.842 87.9781 975.397 76.8321C981.47 64.6441 975.974 51.0651 962.728 45.5311C958.219 43.6471 947.843 43.6481 942.707 45.5331ZM1050.04 49.5301C1040.21 51.3081 1027.56 57.5831 1022.3 63.2861C1014.03 72.2601 1010.68 80.8991 1009.41 96.5141L1008.72 105H1001.36H994V122.5V140H1001.5H1009V192V244H1030.5H1052V192V140H1063.5H1075V122.5V105H1063.36H1051.72L1052.28 99.6131C1053.34 89.3321 1057.17 85.7031 1068.34 84.3891L1074 83.7251V65.8621V48.0001L1065.75 48.0901C1061.21 48.1401 1054.14 48.7881 1050.04 49.5301ZM534.124 104.578C525.359 106.935 515.786 112.586 509.039 119.383C494.658 133.873 489 149.295 489 174C489 194.625 493.127 208.873 502.958 222.185C523.472 249.964 563.972 254.188 587.191 230.969L593 225.16V234.58V244H614.5H636V174.5V105H614.5H593V114.697V124.394L590.061 120.447C584.756 113.323 575.043 107.027 565.54 104.552C558.062 102.605 541.408 102.618 534.124 104.578ZM736.634 104.586C728.977 106.44 720.107 111.228 714.281 116.653C711.714 119.044 709.475 121 709.307 121C709.138 121 709 117.4 709 113V105H688H667V174.5V244H687.941H708.882L709.191 201.75L709.5 159.5L712.299 153.801C714.064 150.206 716.59 147.003 719.14 145.129C730.263 136.948 749.701 139.082 757.1 149.296C762.738 157.079 763 159.497 763 203.682V244H783.941H804.882L805.191 201.75L805.5 159.5L808.299 153.801C810.064 150.206 812.59 147.003 815.14 145.129C826.263 136.948 845.701 139.082 853.1 149.296C858.738 157.079 859 159.497 859 203.682V244H880H901V197.66C901 154.785 900.852 150.742 899.025 143.596C894.307 125.151 882.144 111.663 865.137 106.015C856.223 103.056 841.495 102.312 832.741 104.379C820.498 107.271 808.359 114.877 801.376 124.034L797.681 128.88L793.933 123.645C782.3 107.401 758.168 99.3741 736.634 104.586ZM931 174.5V244H952.5H974V174.5V105H952.5H931V174.5ZM1080 105.411C1080 105.657 1092.63 135.867 1108.07 172.543L1136.14 239.228L1120.27 274.364L1104.4 309.5L1126.88 309.769C1139.25 309.917 1149.7 309.692 1150.11 309.269C1150.83 308.542 1237 106.385 1237 105.444C1237 105.2 1226.7 105 1214.1 105H1191.2L1185.22 121.25C1181.93 130.188 1174.83 149.535 1169.45 164.246C1164.06 178.956 1159.43 190.761 1159.15 190.48C1158.87 190.199 1151.61 170.963 1143.02 147.734L1127.4 105.5L1103.7 105.232C1090.67 105.084 1080 105.165 1080 105.411ZM575.723 142.834C589.46 149.922 596.085 167.441 591.617 184.859C583.605 216.094 541.666 216.718 533.415 185.725C530.399 174.395 532.643 159.09 538.435 151.497C541.327 147.705 547.843 142.92 552.5 141.168C557.388 139.33 570.797 140.292 575.723 142.834ZM77.987 163.659C52.245 180.824 32.667 206.824 22.495 237.352C15.139 259.427 12.528 279.714 13.275 309C14.518 357.717 27.58 394.253 53.668 421.985C75.844 445.559 105.31 459.599 143.024 464.562C161.581 467.005 191.639 466.107 206 462.683C225.397 458.058 237.494 452.846 252.265 442.751C262.84 435.524 264.214 433.86 256.349 437.806C239.89 446.062 221.912 449.968 196.982 450.704C160.295 451.788 130.956 445.219 104.374 429.97C73.544 412.283 51.788 382.732 41.539 344.62C35.648 322.714 33.208 295.406 34.961 271.006C38.07 227.723 51.067 195.392 76.122 168.613C80.554 163.876 84.021 160 83.827 160C83.632 160 81.004 161.646 77.987 163.659ZM154.667 251.667C154.3 252.033 154 255.408 154 259.167V266H292H430V330.403V394.806L426.446 405.018C416.925 432.371 402.22 458.483 381.911 484.102C373.753 494.393 355.16 513.707 345.5 521.925C338.513 527.869 342.748 525.493 353.668 517.343C397.334 484.752 431.005 439.093 448.571 388.653L452 378.806V314.903V251H303.667C222.083 251 155.033 251.3 154.667 251.667ZM822 358.5V451H824.5H827L827.011 419.25L827.021 387.5L858.096 419.25C887.674 449.472 889.346 451 892.829 451C896.447 451 896.103 450.614 862.5 417L828.511 383L862 349.5C894.52 316.969 895.388 316 892 316C888.758 316 886.339 318.172 857.756 346.744L827 377.488V321.744V266H824.5H822V358.5ZM555.5 315.034C534.723 318.221 518.278 330.147 509.576 348.338C503.437 361.171 502.5 365.895 502.502 384C502.505 400.966 503.991 408.096 510.01 420.02C523.401 446.548 555.012 458.594 588.233 449.83C605.245 445.342 620.533 431.556 625.915 415.848C629.304 405.957 629.363 405 626.59 405C624.469 405 623.92 405.768 622.482 410.75C615.657 434.398 595.271 448.03 566.803 447.985C548.724 447.956 535.753 442.941 524.412 431.592C513.707 420.879 507 405.03 507 390.442V386.015L567.75 385.758L628.5 385.5L628.37 373.5C628.225 360.2 626.464 353.167 620.733 343C614.091 331.219 599.34 320.147 585.476 316.536C578.008 314.591 563.221 313.85 555.5 315.034ZM712.5 315.034C692.663 318.077 676.063 329.676 667.251 346.652C661.648 357.446 659.984 364.338 659.31 379.537C658.602 395.511 660.383 405.742 665.916 417.5C670.906 428.103 677.359 435.758 686.415 441.815C710.946 458.222 748.035 455.995 768.46 436.888C777.657 428.286 782.278 420.318 785.363 407.75C785.961 405.315 785.758 405 783.59 405C781.469 405 780.92 405.768 779.482 410.75C772.671 434.347 752.21 448.03 723.803 447.985C705.661 447.956 692.783 442.955 681.258 431.463C675.945 426.166 673.08 422.271 670.502 416.842C666.672 408.777 664.045 398.209 664.017 390.758L664 386.015L724.75 385.758L785.5 385.5L785.37 373.5C785.225 360.2 783.464 353.167 777.733 343C771.091 331.219 756.34 320.147 742.476 316.536C735.008 314.591 720.221 313.85 712.5 315.034ZM950 314.976C929.601 318.865 917.074 331.68 917.022 348.712C916.99 359.286 919.618 365.505 927.011 372.35C933.614 378.463 941.223 381.866 958.5 386.433C984.428 393.287 994.056 398.205 998.764 407C1000.83 410.865 1001.11 412.509 1000.74 418.643C999.652 436.798 985.074 448.025 962.645 447.983C937.828 447.936 921.707 438.245 918.197 421.266C917.596 418.358 916.883 417.423 915.066 417.162C912.868 416.846 912.747 417.08 913.237 420.731C914.04 426.718 918.878 435.633 923.772 440.144C937.672 452.957 967.709 456.684 985.697 447.828C992.906 444.28 1000.22 437.008 1003.08 430.56C1008.03 419.359 1006.23 406.506 998.604 398.66C991.864 391.726 986.007 389.225 956.055 380.497C940.174 375.869 933.846 372.735 928.594 366.893C923.679 361.427 922 356.646 922 348.123C922 340.157 924.727 334.33 931.164 328.543C939.122 321.388 945.123 319.518 960 319.558C970.739 319.588 973.344 319.926 978.493 321.959C989.694 326.382 1000 339.837 1000 350.038C1000 352.573 1000.38 353 1002.64 353C1005.22 353 1005.27 352.895 1004.68 347.923C1002.99 333.678 992.375 321.667 977.379 317.035C970.098 314.786 956.399 313.756 950 314.976ZM582 320.557C600.525 324.91 615.13 337.557 621.035 354.36C623.119 360.289 624.985 374.628 624.204 378.713L623.767 381H565.383H507L507.017 376.25C507.027 373.638 507.699 368.363 508.511 364.529C513.135 342.701 528.816 326.486 551 320.593C558.255 318.665 573.874 318.647 582 320.557ZM738.5 320.452C764.956 326.725 781 346.769 781 373.549V381H722.5H664L664.017 376.25C664.027 373.638 664.699 368.363 665.511 364.529C670.135 342.701 685.816 326.486 708 320.593C715.1 318.707 730.833 318.634 738.5 320.452Z"></path></mask><path fill-rule="evenodd" clip-rule="evenodd" d="M158 0.691076C117.493 3.05608 77.363 13.9331 41.756 32.1961C28.977 38.7501 4 54.1661 4 55.4981C4 55.8121 7.262 54.2211 11.25 51.9631C35.666 38.1401 65.324 27.1931 93.533 21.5921C150.571 10.2681 214.874 14.1421 266.5 32.0141C291.476 40.6601 321.74 57.5001 342.5 74.3031C353.006 82.8071 371.947 102.329 380.045 113C392.954 130.011 405.207 152.676 412.659 173.331L416.5 183.976L429.329 183.988L442.159 184L441.473 180.75C438.462 166.493 426.615 137.883 416.538 120.528C398.086 88.7531 369.224 59.6911 336 39.4331C288.408 10.4151 225.596 -3.25592 158 0.691076ZM942.707 45.5331C937.043 47.6121 933.286 50.6471 930.6 55.3151C923.202 68.1721 929.401 84.3691 943.298 88.4961C957.121 92.6011 969.842 87.9781 975.397 76.8321C981.47 64.6441 975.974 51.0651 962.728 45.5311C958.219 43.6471 947.843 43.6481 942.707 45.5331ZM1050.04 49.5301C1040.21 51.3081 1027.56 57.5831 1022.3 63.2861C1014.03 72.2601 1010.68 80.8991 1009.41 96.5141L1008.72 105H1001.36H994V122.5V140H1001.5H1009V192V244H1030.5H1052V192V140H1063.5H1075V122.5V105H1063.36H1051.72L1052.28 99.6131C1053.34 89.3321 1057.17 85.7031 1068.34 84.3891L1074 83.7251V65.8621V48.0001L1065.75 48.0901C1061.21 48.1401 1054.14 48.7881 1050.04 49.5301ZM534.124 104.578C525.359 106.935 515.786 112.586 509.039 119.383C494.658 133.873 489 149.295 489 174C489 194.625 493.127 208.873 502.958 222.185C523.472 249.964 563.972 254.188 587.191 230.969L593 225.16V234.58V244H614.5H636V174.5V105H614.5H593V114.697V124.394L590.061 120.447C584.756 113.323 575.043 107.027 565.54 104.552C558.062 102.605 541.408 102.618 534.124 104.578ZM736.634 104.586C728.977 106.44 720.107 111.228 714.281 116.653C711.714 119.044 709.475 121 709.307 121C709.138 121 709 117.4 709 113V105H688H667V174.5V244H687.941H708.882L709.191 201.75L709.5 159.5L712.299 153.801C714.064 150.206 716.59 147.003 719.14 145.129C730.263 136.948 749.701 139.082 757.1 149.296C762.738 157.079 763 159.497 763 203.682V244H783.941H804.882L805.191 201.75L805.5 159.5L808.299 153.801C810.064 150.206 812.59 147.003 815.14 145.129C826.263 136.948 845.701 139.082 853.1 149.296C858.738 157.079 859 159.497 859 203.682V244H880H901V197.66C901 154.785 900.852 150.742 899.025 143.596C894.307 125.151 882.144 111.663 865.137 106.015C856.223 103.056 841.495 102.312 832.741 104.379C820.498 107.271 808.359 114.877 801.376 124.034L797.681 128.88L793.933 123.645C782.3 107.401 758.168 99.3741 736.634 104.586ZM931 174.5V244H952.5H974V174.5V105H952.5H931V174.5ZM1080 105.411C1080 105.657 1092.63 135.867 1108.07 172.543L1136.14 239.228L1120.27 274.364L1104.4 309.5L1126.88 309.769C1139.25 309.917 1149.7 309.692 1150.11 309.269C1150.83 308.542 1237 106.385 1237 105.444C1237 105.2 1226.7 105 1214.1 105H1191.2L1185.22 121.25C1181.93 130.188 1174.83 149.535 1169.45 164.246C1164.06 178.956 1159.43 190.761 1159.15 190.48C1158.87 190.199 1151.61 170.963 1143.02 147.734L1127.4 105.5L1103.7 105.232C1090.67 105.084 1080 105.165 1080 105.411ZM575.723 142.834C589.46 149.922 596.085 167.441 591.617 184.859C583.605 216.094 541.666 216.718 533.415 185.725C530.399 174.395 532.643 159.09 538.435 151.497C541.327 147.705 547.843 142.92 552.5 141.168C557.388 139.33 570.797 140.292 575.723 142.834ZM77.987 163.659C52.245 180.824 32.667 206.824 22.495 237.352C15.139 259.427 12.528 279.714 13.275 309C14.518 357.717 27.58 394.253 53.668 421.985C75.844 445.559 105.31 459.599 143.024 464.562C161.581 467.005 191.639 466.107 206 462.683C225.397 458.058 237.494 452.846 252.265 442.751C262.84 435.524 264.214 433.86 256.349 437.806C239.89 446.062 221.912 449.968 196.982 450.704C160.295 451.788 130.956 445.219 104.374 429.97C73.544 412.283 51.788 382.732 41.539 344.62C35.648 322.714 33.208 295.406 34.961 271.006C38.07 227.723 51.067 195.392 76.122 168.613C80.554 163.876 84.021 160 83.827 160C83.632 160 81.004 161.646 77.987 163.659ZM154.667 251.667C154.3 252.033 154 255.408 154 259.167V266H292H430V330.403V394.806L426.446 405.018C416.925 432.371 402.22 458.483 381.911 484.102C373.753 494.393 355.16 513.707 345.5 521.925C338.513 527.869 342.748 525.493 353.668 517.343C397.334 484.752 431.005 439.093 448.571 388.653L452 378.806V314.903V251H303.667C222.083 251 155.033 251.3 154.667 251.667ZM822 358.5V451H824.5H827L827.011 419.25L827.021 387.5L858.096 419.25C887.674 449.472 889.346 451 892.829 451C896.447 451 896.103 450.614 862.5 417L828.511 383L862 349.5C894.52 316.969 895.388 316 892 316C888.758 316 886.339 318.172 857.756 346.744L827 377.488V321.744V266H824.5H822V358.5ZM555.5 315.034C534.723 318.221 518.278 330.147 509.576 348.338C503.437 361.171 502.5 365.895 502.502 384C502.505 400.966 503.991 408.096 510.01 420.02C523.401 446.548 555.012 458.594 588.233 449.83C605.245 445.342 620.533 431.556 625.915 415.848C629.304 405.957 629.363 405 626.59 405C624.469 405 623.92 405.768 622.482 410.75C615.657 434.398 595.271 448.03 566.803 447.985C548.724 447.956 535.753 442.941 524.412 431.592C513.707 420.879 507 405.03 507 390.442V386.015L567.75 385.758L628.5 385.5L628.37 373.5C628.225 360.2 626.464 353.167 620.733 343C614.091 331.219 599.34 320.147 585.476 316.536C578.008 314.591 563.221 313.85 555.5 315.034ZM712.5 315.034C692.663 318.077 676.063 329.676 667.251 346.652C661.648 357.446 659.984 364.338 659.31 379.537C658.602 395.511 660.383 405.742 665.916 417.5C670.906 428.103 677.359 435.758 686.415 441.815C710.946 458.222 748.035 455.995 768.46 436.888C777.657 428.286 782.278 420.318 785.363 407.75C785.961 405.315 785.758 405 783.59 405C781.469 405 780.92 405.768 779.482 410.75C772.671 434.347 752.21 448.03 723.803 447.985C705.661 447.956 692.783 442.955 681.258 431.463C675.945 426.166 673.08 422.271 670.502 416.842C666.672 408.777 664.045 398.209 664.017 390.758L664 386.015L724.75 385.758L785.5 385.5L785.37 373.5C785.225 360.2 783.464 353.167 777.733 343C771.091 331.219 756.34 320.147 742.476 316.536C735.008 314.591 720.221 313.85 712.5 315.034ZM950 314.976C929.601 318.865 917.074 331.68 917.022 348.712C916.99 359.286 919.618 365.505 927.011 372.35C933.614 378.463 941.223 381.866 958.5 386.433C984.428 393.287 994.056 398.205 998.764 407C1000.83 410.865 1001.11 412.509 1000.74 418.643C999.652 436.798 985.074 448.025 962.645 447.983C937.828 447.936 921.707 438.245 918.197 421.266C917.596 418.358 916.883 417.423 915.066 417.162C912.868 416.846 912.747 417.08 913.237 420.731C914.04 426.718 918.878 435.633 923.772 440.144C937.672 452.957 967.709 456.684 985.697 447.828C992.906 444.28 1000.22 437.008 1003.08 430.56C1008.03 419.359 1006.23 406.506 998.604 398.66C991.864 391.726 986.007 389.225 956.055 380.497C940.174 375.869 933.846 372.735 928.594 366.893C923.679 361.427 922 356.646 922 348.123C922 340.157 924.727 334.33 931.164 328.543C939.122 321.388 945.123 319.518 960 319.558C970.739 319.588 973.344 319.926 978.493 321.959C989.694 326.382 1000 339.837 1000 350.038C1000 352.573 1000.38 353 1002.64 353C1005.22 353 1005.27 352.895 1004.68 347.923C1002.99 333.678 992.375 321.667 977.379 317.035C970.098 314.786 956.399 313.756 950 314.976ZM582 320.557C600.525 324.91 615.13 337.557 621.035 354.36C623.119 360.289 624.985 374.628 624.204 378.713L623.767 381H565.383H507L507.017 376.25C507.027 373.638 507.699 368.363 508.511 364.529C513.135 342.701 528.816 326.486 551 320.593C558.255 318.665 573.874 318.647 582 320.557ZM738.5 320.452C764.956 326.725 781 346.769 781 373.549V381H722.5H664L664.017 376.25C664.027 373.638 664.699 368.363 665.511 364.529C670.135 342.701 685.816 326.486 708 320.593C715.1 318.707 730.833 318.634 738.5 320.452Z" fill="white"></path><path fill-rule="evenodd" clip-rule="evenodd" d="M158 0.691076C117.493 3.05608 77.363 13.9331 41.756 32.1961C28.977 38.7501 4 54.1661 4 55.4981C4 55.8121 7.262 54.2211 11.25 51.9631C35.666 38.1401 65.324 27.1931 93.533 21.5921C150.571 10.2681 214.874 14.1421 266.5 32.0141C291.476 40.6601 321.74 57.5001 342.5 74.3031C353.006 82.8071 371.947 102.329 380.045 113C392.954 130.011 405.207 152.676 412.659 173.331L416.5 183.976L429.329 183.988L442.159 184L441.473 180.75C438.462 166.493 426.615 137.883 416.538 120.528C398.086 88.7531 369.224 59.6911 336 39.4331C288.408 10.4151 225.596 -3.25592 158 0.691076ZM942.707 45.5331C937.043 47.6121 933.286 50.6471 930.6 55.3151C923.202 68.1721 929.401 84.3691 943.298 88.4961C957.121 92.6011 969.842 87.9781 975.397 76.8321C981.47 64.6441 975.974 51.0651 962.728 45.5311C958.219 43.6471 947.843 43.6481 942.707 45.5331ZM1050.04 49.5301C1040.21 51.3081 1027.56 57.5831 1022.3 63.2861C1014.03 72.2601 1010.68 80.8991 1009.41 96.5141L1008.72 105H1001.36H994V122.5V140H1001.5H1009V192V244H1030.5H1052V192V140H1063.5H1075V122.5V105H1063.36H1051.72L1052.28 99.6131C1053.34 89.3321 1057.17 85.7031 1068.34 84.3891L1074 83.7251V65.8621V48.0001L1065.75 48.0901C1061.21 48.1401 1054.14 48.7881 1050.04 49.5301ZM534.124 104.578C525.359 106.935 515.786 112.586 509.039 119.383C494.658 133.873 489 149.295 489 174C489 194.625 493.127 208.873 502.958 222.185C523.472 249.964 563.972 254.188 587.191 230.969L593 225.16V234.58V244H614.5H636V174.5V105H614.5H593V114.697V124.394L590.061 120.447C584.756 113.323 575.043 107.027 565.54 104.552C558.062 102.605 541.408 102.618 534.124 104.578ZM736.634 104.586C728.977 106.44 720.107 111.228 714.281 116.653C711.714 119.044 709.475 121 709.307 121C709.138 121 709 117.4 709 113V105H688H667V174.5V244H687.941H708.882L709.191 201.75L709.5 159.5L712.299 153.801C714.064 150.206 716.59 147.003 719.14 145.129C730.263 136.948 749.701 139.082 757.1 149.296C762.738 157.079 763 159.497 763 203.682V244H783.941H804.882L805.191 201.75L805.5 159.5L808.299 153.801C810.064 150.206 812.59 147.003 815.14 145.129C826.263 136.948 845.701 139.082 853.1 149.296C858.738 157.079 859 159.497 859 203.682V244H880H901V197.66C901 154.785 900.852 150.742 899.025 143.596C894.307 125.151 882.144 111.663 865.137 106.015C856.223 103.056 841.495 102.312 832.741 104.379C820.498 107.271 808.359 114.877 801.376 124.034L797.681 128.88L793.933 123.645C782.3 107.401 758.168 99.3741 736.634 104.586ZM931 174.5V244H952.5H974V174.5V105H952.5H931V174.5ZM1080 105.411C1080 105.657 1092.63 135.867 1108.07 172.543L1136.14 239.228L1120.27 274.364L1104.4 309.5L1126.88 309.769C1139.25 309.917 1149.7 309.692 1150.11 309.269C1150.83 308.542 1237 106.385 1237 105.444C1237 105.2 1226.7 105 1214.1 105H1191.2L1185.22 121.25C1181.93 130.188 1174.83 149.535 1169.45 164.246C1164.06 178.956 1159.43 190.761 1159.15 190.48C1158.87 190.199 1151.61 170.963 1143.02 147.734L1127.4 105.5L1103.7 105.232C1090.67 105.084 1080 105.165 1080 105.411ZM575.723 142.834C589.46 149.922 596.085 167.441 591.617 184.859C583.605 216.094 541.666 216.718 533.415 185.725C530.399 174.395 532.643 159.09 538.435 151.497C541.327 147.705 547.843 142.92 552.5 141.168C557.388 139.33 570.797 140.292 575.723 142.834ZM77.987 163.659C52.245 180.824 32.667 206.824 22.495 237.352C15.139 259.427 12.528 279.714 13.275 309C14.518 357.717 27.58 394.253 53.668 421.985C75.844 445.559 105.31 459.599 143.024 464.562C161.581 467.005 191.639 466.107 206 462.683C225.397 458.058 237.494 452.846 252.265 442.751C262.84 435.524 264.214 433.86 256.349 437.806C239.89 446.062 221.912 449.968 196.982 450.704C160.295 451.788 130.956 445.219 104.374 429.97C73.544 412.283 51.788 382.732 41.539 344.62C35.648 322.714 33.208 295.406 34.961 271.006C38.07 227.723 51.067 195.392 76.122 168.613C80.554 163.876 84.021 160 83.827 160C83.632 160 81.004 161.646 77.987 163.659ZM154.667 251.667C154.3 252.033 154 255.408 154 259.167V266H292H430V330.403V394.806L426.446 405.018C416.925 432.371 402.22 458.483 381.911 484.102C373.753 494.393 355.16 513.707 345.5 521.925C338.513 527.869 342.748 525.493 353.668 517.343C397.334 484.752 431.005 439.093 448.571 388.653L452 378.806V314.903V251H303.667C222.083 251 155.033 251.3 154.667 251.667ZM822 358.5V451H824.5H827L827.011 419.25L827.021 387.5L858.096 419.25C887.674 449.472 889.346 451 892.829 451C896.447 451 896.103 450.614 862.5 417L828.511 383L862 349.5C894.52 316.969 895.388 316 892 316C888.758 316 886.339 318.172 857.756 346.744L827 377.488V321.744V266H824.5H822V358.5ZM555.5 315.034C534.723 318.221 518.278 330.147 509.576 348.338C503.437 361.171 502.5 365.895 502.502 384C502.505 400.966 503.991 408.096 510.01 420.02C523.401 446.548 555.012 458.594 588.233 449.83C605.245 445.342 620.533 431.556 625.915 415.848C629.304 405.957 629.363 405 626.59 405C624.469 405 623.92 405.768 622.482 410.75C615.657 434.398 595.271 448.03 566.803 447.985C548.724 447.956 535.753 442.941 524.412 431.592C513.707 420.879 507 405.03 507 390.442V386.015L567.75 385.758L628.5 385.5L628.37 373.5C628.225 360.2 626.464 353.167 620.733 343C614.091 331.219 599.34 320.147 585.476 316.536C578.008 314.591 563.221 313.85 555.5 315.034ZM712.5 315.034C692.663 318.077 676.063 329.676 667.251 346.652C661.648 357.446 659.984 364.338 659.31 379.537C658.602 395.511 660.383 405.742 665.916 417.5C670.906 428.103 677.359 435.758 686.415 441.815C710.946 458.222 748.035 455.995 768.46 436.888C777.657 428.286 782.278 420.318 785.363 407.75C785.961 405.315 785.758 405 783.59 405C781.469 405 780.92 405.768 779.482 410.75C772.671 434.347 752.21 448.03 723.803 447.985C705.661 447.956 692.783 442.955 681.258 431.463C675.945 426.166 673.08 422.271 670.502 416.842C666.672 408.777 664.045 398.209 664.017 390.758L664 386.015L724.75 385.758L785.5 385.5L785.37 373.5C785.225 360.2 783.464 353.167 777.733 343C771.091 331.219 756.34 320.147 742.476 316.536C735.008 314.591 720.221 313.85 712.5 315.034ZM950 314.976C929.601 318.865 917.074 331.68 917.022 348.712C916.99 359.286 919.618 365.505 927.011 372.35C933.614 378.463 941.223 381.866 958.5 386.433C984.428 393.287 994.056 398.205 998.764 407C1000.83 410.865 1001.11 412.509 1000.74 418.643C999.652 436.798 985.074 448.025 962.645 447.983C937.828 447.936 921.707 438.245 918.197 421.266C917.596 418.358 916.883 417.423 915.066 417.162C912.868 416.846 912.747 417.08 913.237 420.731C914.04 426.718 918.878 435.633 923.772 440.144C937.672 452.957 967.709 456.684 985.697 447.828C992.906 444.28 1000.22 437.008 1003.08 430.56C1008.03 419.359 1006.23 406.506 998.604 398.66C991.864 391.726 986.007 389.225 956.055 380.497C940.174 375.869 933.846 372.735 928.594 366.893C923.679 361.427 922 356.646 922 348.123C922 340.157 924.727 334.33 931.164 328.543C939.122 321.388 945.123 319.518 960 319.558C970.739 319.588 973.344 319.926 978.493 321.959C989.694 326.382 1000 339.837 1000 350.038C1000 352.573 1000.38 353 1002.64 353C1005.22 353 1005.27 352.895 1004.68 347.923C1002.99 333.678 992.375 321.667 977.379 317.035C970.098 314.786 956.399 313.756 950 314.976ZM582 320.557C600.525 324.91 615.13 337.557 621.035 354.36C623.119 360.289 624.985 374.628 624.204 378.713L623.767 381H565.383H507L507.017 376.25C507.027 373.638 507.699 368.363 508.511 364.529C513.135 342.701 528.816 326.486 551 320.593C558.255 318.665 573.874 318.647 582 320.557ZM738.5 320.452C764.956 326.725 781 346.769 781 373.549V381H722.5H664L664.017 376.25C664.027 373.638 664.699 368.363 665.511 364.529C670.135 342.701 685.816 326.486 708 320.593C715.1 318.707 730.833 318.634 738.5 320.452Z" stroke="white" stroke-width="2" mask="url(#path-1-inside-1_172_292)"></path></g><defs><filter id="filter0_d_172_292" x="0" y="0.0246582" width="1241" height="533.212" filterUnits="userSpaceOnUse" color-interpolation-filters="sRGB"><feFlood flood-opacity="0" result="BackgroundImageFix"></feFlood><feColorMatrix in="SourceAlpha" type="matrix" values="0 0 0 0 0 0 0 0 0 0 0 0 0 0 0 0 0 0 127 0" result="hardAlpha"></feColorMatrix><feOffset dy="4"></feOffset><feGaussianBlur stdDeviation="2"></feGaussianBlur><feComposite in2="hardAlpha" operator="out"></feComposite><feColorMatrix type="matrix" values="0 0 0 0 0 0 0 0 0 0 0 0 0 0 0 0 0 0 0.25 0"></feColorMatrix><feBlend mode="normal" in2="BackgroundImageFix" result="effect1_dropShadow_172_292"></feBlend><feBlend mode="normal" in="SourceGraphic" in2="effect1_dropShadow_172_292" result="shape"></feBlend></filter></defs></svg>