<svg xmlns="http://www.w3.org/2000/svg" fill="none" viewBox="4 30 843.82 657.5"><g filter="url(#filter0_d_172_436)"><path fill-rule="evenodd" clip-rule="evenodd" d="M187.906 30.7702C139.533 33.5035 91.6098 46.0743 49.0881 67.1813C33.8274 74.7559 4 92.5725 4 94.1119C4 94.4748 7.89547 92.6361 12.6579 90.0265C41.8154 74.0509 77.2329 61.3992 110.92 54.926C179.035 41.8386 255.825 46.3158 317.477 66.9709C347.303 76.9633 383.444 96.4257 408.236 115.845C420.782 125.674 443.401 148.236 453.072 160.568C468.487 180.228 483.12 206.423 492.019 230.294L496.606 242.597L511.926 242.611L527.248 242.625L526.429 238.869C522.833 222.391 508.685 189.326 496.651 169.269C474.616 132.546 440.149 98.9579 400.473 75.5453C343.639 42.0085 268.629 26.2086 187.906 30.7702ZM92.355 219.116C61.614 238.954 38.234 269.003 26.0867 304.285C17.3021 329.798 14.1841 353.244 15.0762 387.09C16.5606 443.394 32.1592 485.619 63.3133 517.67C89.7959 544.915 124.984 561.141 170.022 566.877C192.183 569.7 228.078 568.662 245.228 564.705C268.392 559.36 282.838 553.336 300.477 541.669C313.106 533.317 314.747 531.394 305.354 535.954C285.699 545.496 264.23 550.01 234.458 550.861C190.647 552.114 155.61 544.522 123.866 526.898C87.0492 506.457 61.0683 472.304 48.8289 428.257C41.7939 402.94 38.8801 371.379 40.9735 343.18C44.6863 293.156 60.2072 255.791 90.1278 224.842C95.4205 219.367 99.5608 214.887 99.3291 214.887C99.0962 214.887 95.9579 216.79 92.355 219.116ZM183.926 320.829C183.488 321.252 183.129 325.153 183.129 329.497V337.394H347.929H512.728V411.826V486.258L508.483 498.061C497.114 529.673 479.553 559.851 455.3 589.46C445.558 601.353 423.354 623.675 411.818 633.173C403.474 640.042 408.532 637.296 421.572 627.877C473.718 590.211 513.928 537.442 534.905 479.147L539 467.767V393.913V320.058H361.861C264.434 320.058 184.363 320.405 183.926 320.829Z" fill="white"></path><path d="M49.0881 67.1813C91.6098 46.0743 139.533 33.5035 187.906 30.7702C268.629 26.2086 343.639 42.0085 400.473 75.5453C440.149 98.9579 474.616 132.546 496.651 169.269C508.685 189.326 522.833 222.391 526.429 238.869L527.248 242.625L511.926 242.611L496.606 242.597L492.019 230.294C483.12 206.423 453.072 160.568 453.072 160.568C443.401 148.236 420.782 125.674 408.236 115.845C383.444 96.4257 347.303 76.9633 317.477 66.9709C255.825 46.3158 179.035 41.8386 110.92 54.926C77.2329 61.3992 41.8154 74.0509 12.6579 90.0265C7.89547 92.6361 4 94.4748 4 94.1119C4 92.5725 33.8274 74.7559 49.0881 67.1813Z" fill="white"></path><path d="M26.0867 304.285C38.234 269.003 61.614 238.954 92.355 219.116C95.9579 216.79 99.0962 214.887 99.3291 214.887C99.5608 214.887 95.4205 219.367 90.1278 224.842C60.2072 255.791 44.6863 293.156 40.9735 343.18C38.8801 371.379 41.7939 402.94 48.8289 428.257C61.0683 472.304 87.0492 506.457 123.866 526.898C155.61 544.522 190.647 552.114 234.458 550.861C264.23 550.01 285.699 545.496 305.354 535.954C314.747 531.394 313.106 533.317 300.477 541.669C282.838 553.336 268.392 559.36 245.228 564.705C228.078 568.662 192.183 569.7 170.022 566.877C124.984 561.141 89.7959 544.915 63.3133 517.67C32.1592 485.619 16.5606 443.394 15.0762 387.09C14.1841 353.244 17.3021 329.798 26.0867 304.285Z" fill="white"></path><path d="M183.129 329.497C183.129 325.153 183.488 321.252 183.926 320.829C184.363 320.405 264.434 320.058 361.861 320.058H539V393.913V467.767L534.905 479.147C513.928 537.442 473.718 590.211 421.572 627.877C408.532 637.296 403.474 640.042 411.818 633.173C423.354 623.675 445.558 601.353 455.3 589.46C479.553 559.851 497.114 529.673 508.483 498.061L512.728 486.258V411.826V337.394H347.929H183.129V329.497Z" fill="white"></path><path d="M183.629 336.894H183.129V329.497C183.129 325.153 183.488 321.252 183.926 320.829C184.363 320.405 264.434 320.058 361.861 320.058H538.5V320.558M183.629 336.894V337.394H347.929H512.228H512.728V337.894V411.826V486.258L508.483 498.061C497.114 529.673 479.553 559.851 455.3 589.46C445.558 601.353 423.354 623.675 411.818 633.173C410.027 634.647 408.853 635.679 408.244 636.296C408.303 636.266 408.368 636.232 408.437 636.194C408.917 635.934 409.582 635.532 410.421 634.996M183.629 336.894V329.497C183.629 327.337 183.719 325.291 183.861 323.738C183.933 322.961 184.017 322.316 184.108 321.846C184.153 321.61 184.198 321.429 184.24 321.303C184.242 321.297 184.244 321.292 184.246 321.287M183.629 336.894H347.929H512.728H513.228V337.394V411.826V486.258V486.345L513.198 486.427L508.954 498.23C497.562 529.903 479.971 560.13 455.687 589.777C445.924 601.695 423.698 624.04 412.136 633.559C411.479 634.099 410.909 634.578 410.421 634.996M410.421 634.996C409.526 635.763 408.909 636.328 408.545 636.703C410.308 635.775 414.893 632.702 421.572 627.877C473.718 590.211 513.928 537.442 534.905 479.147L539 467.767M410.421 634.996C412.767 633.497 416.473 630.943 421.28 627.472C473.347 589.862 513.493 537.174 534.435 478.978L538.5 467.68M539 467.767V393.913V320.558H538.5M539 467.767H538.5V467.68M539 467.767L538.53 467.597L538.5 467.68M538.5 320.558V393.913V467.68M538.5 320.558H361.861C313.148 320.558 268.774 320.645 236.524 320.785C220.399 320.854 207.306 320.938 198.217 321.03C193.672 321.076 190.13 321.124 187.711 321.174C186.501 321.199 185.575 321.225 184.946 321.25C184.636 321.263 184.403 321.275 184.246 321.287M184.246 321.287C184.273 321.206 184.292 321.173 184.294 321.168C184.296 321.164 184.29 321.173 184.274 321.188C184.274 321.188 184.274 321.188 184.274 321.188C184.274 321.189 184.273 321.189 184.273 321.189C184.204 321.256 184.133 321.283 184.121 321.288C184.112 321.292 184.104 321.295 184.097 321.297C184.085 321.301 184.076 321.303 184.073 321.304C184.068 321.305 184.065 321.306 184.065 321.306C184.065 321.306 184.068 321.305 184.076 321.304C184.105 321.3 184.157 321.294 184.237 321.288C184.24 321.288 184.243 321.288 184.246 321.287ZM525.94 238.975L526.627 242.124L511.927 242.111L496.953 242.097L492.488 230.12C483.571 206.201 468.913 179.961 453.465 160.26C443.769 147.895 421.121 125.304 408.544 115.452C383.707 95.997 347.516 76.5073 317.635 66.4968C255.897 45.8126 179.019 41.3324 110.826 54.435C77.0891 60.9177 41.6222 73.5866 12.4177 89.588L12.6467 90.006L12.4177 89.588C10.0421 90.8897 7.88696 91.9968 6.32965 92.7317C6.27376 92.7581 6.21869 92.784 6.16446 92.8093C6.94847 92.2349 7.96556 91.5358 9.17462 90.7369C12.2005 88.7377 16.3986 86.1339 21.0777 83.3391C30.4372 77.7486 41.6967 71.4082 49.3104 67.6291C91.7703 46.5528 139.627 33.999 187.934 31.2694C268.581 26.7121 343.488 42.4997 400.219 75.9759C439.829 99.3495 474.233 132.88 496.223 169.526C508.239 189.554 522.36 222.567 525.94 238.975ZM461.985 173.669C468.266 182.935 474.227 193.045 479.494 203.328C476.275 197.5 472.876 191.649 469.638 186.223C466.908 181.65 464.289 177.376 461.985 173.669ZM92.6261 219.536L92.6262 219.536C94.3283 218.437 95.9253 217.434 97.1588 216.682C96.9349 216.928 96.6925 217.191 96.4329 217.472C94.7685 219.273 92.413 221.759 89.7684 224.494C59.7534 255.541 44.1948 293.023 40.4749 343.143C38.3775 371.395 41.2956 403.014 48.3472 428.391C60.619 472.555 86.6788 506.823 123.624 527.335L123.866 526.898L123.624 527.335C155.461 545.011 190.59 552.615 234.473 551.361C264.291 550.509 285.835 545.986 305.573 536.404C307.521 535.458 308.977 534.8 309.951 534.421C309.883 534.478 309.81 534.537 309.733 534.598C309.195 535.031 308.483 535.566 307.596 536.206C305.82 537.484 303.356 539.166 300.201 541.252C282.618 552.883 268.228 558.885 245.115 564.218C228.036 568.159 192.202 569.199 170.085 566.381C125.137 560.656 90.0609 544.47 63.6719 517.321C32.6263 485.382 17.058 443.289 15.576 387.077C14.6851 353.276 17.7986 329.891 26.5594 304.448L26.0867 304.285L26.5594 304.448C38.6711 269.269 61.9813 239.312 92.6261 219.536ZM408.212 636.791C408.221 636.815 408.227 636.838 408.232 636.859C407.674 637.117 407.582 637.023 408.003 636.551C408.08 636.592 408.164 636.664 408.212 636.791Z" stroke="white"></path></g><path d="M676.322 267C695.989 267 713.156 271 727.822 279C742.822 287 754.322 297.5 762.322 310.5V271H847.822V549.5C847.822 575.167 842.656 598.333 832.322 619C822.322 640 806.822 656.667 785.822 669C765.156 681.333 739.322 687.5 708.322 687.5C666.989 687.5 633.489 677.667 607.822 658C582.156 638.667 567.489 612.333 563.822 579H648.322C650.989 589.667 657.322 598 667.322 604C677.322 610.333 689.656 613.5 704.322 613.5C721.989 613.5 735.989 608.333 746.322 598C756.989 588 762.322 571.833 762.322 549.5V510C753.989 523 742.489 533.667 727.822 542C713.156 550 695.989 554 676.322 554C653.322 554 632.489 548.167 613.822 536.5C595.156 524.5 580.322 507.667 569.322 486C558.656 464 553.322 438.667 553.322 410C553.322 381.333 558.656 356.167 569.322 334.5C580.322 312.833 595.156 296.167 613.822 284.5C632.489 272.833 653.322 267 676.322 267ZM762.322 410.5C762.322 389.167 756.322 372.333 744.322 360C732.656 347.667 718.322 341.5 701.322 341.5C684.322 341.5 669.822 347.667 657.822 360C646.156 372 640.322 388.667 640.322 410C640.322 431.333 646.156 448.333 657.822 461C669.822 473.333 684.322 479.5 701.322 479.5C718.322 479.5 732.656 473.333 744.322 461C756.322 448.667 762.322 431.833 762.322 410.5Z" fill="white"></path><defs><filter id="filter0_d_172_436" x="0" y="30" width="543" height="615" filterUnits="userSpaceOnUse" color-interpolation-filters="sRGB"><feFlood flood-opacity="0" result="BackgroundImageFix"></feFlood><feColorMatrix in="SourceAlpha" type="matrix" values="0 0 0 0 0 0 0 0 0 0 0 0 0 0 0 0 0 0 127 0" result="hardAlpha"></feColorMatrix><feOffset dy="4"></feOffset><feGaussianBlur stdDeviation="2"></feGaussianBlur><feComposite in2="hardAlpha" operator="out"></feComposite><feColorMatrix type="matrix" values="0 0 0 0 0 0 0 0 0 0 0 0 0 0 0 0 0 0 0.25 0"></feColorMatrix><feBlend mode="normal" in2="BackgroundImageFix" result="effect1_dropShadow_172_436"></feBlend><feBlend mode="normal" in="SourceGraphic" in2="effect1_dropShadow_172_436" result="shape"></feBlend></filter></defs></svg>