<svg xmlns="http://www.w3.org/2000/svg" fill="none" viewBox="27.71 293.75 1535.08 613.25">
<path d="M450.212 496C440.079 477.333 425.413 463.2 406.213 453.6C387.546 443.467 365.413 438.4 339.813 438.4C295.546 438.4 260.079 453.067 233.412 482.4C206.746 511.2 193.413 549.867 193.413 598.4C193.413 650.133 207.279 690.667 235.013 720C263.279 748.8 301.946 763.2 351.013 763.2C384.613 763.2 412.879 754.667 435.813 737.6C459.279 720.533 476.346 696 487.013 664H313.413V563.2H611.013V690.4C600.879 724.533 583.546 756.267 559.013 785.6C535.013 814.933 504.346 838.667 467.013 856.8C429.679 874.933 387.546 884 340.613 884C285.146 884 235.546 872 191.813 848C148.613 823.467 114.746 789.6 90.2125 746.4C66.2125 703.2 54.2125 653.867 54.2125 598.4C54.2125 542.933 66.2125 493.6 90.2125 450.4C114.746 406.667 148.613 372.8 191.813 348.8C235.013 324.267 284.346 312 339.813 312C407.013 312 463.546 328.267 509.413 360.8C555.813 393.333 586.479 438.4 601.413 496H450.212Z" fill="#002145"/>
<g style="mix-blend-mode:hard-light">
<path d="M629.649 752.2C629.649 749.367 630.215 746.883 631.349 744.75C632.515 742.583 634.115 740.917 636.149 739.75C638.182 738.583 640.515 738 643.149 738C646.482 738 649.232 738.8 651.399 740.4C653.599 741.967 655.082 744.217 655.849 747.15H649.699C649.199 745.783 648.399 744.717 647.299 743.95C646.199 743.183 644.815 742.8 643.149 742.8C640.815 742.8 638.949 743.633 637.549 745.3C636.182 746.933 635.499 749.233 635.499 752.2C635.499 755.167 636.182 757.483 637.549 759.15C638.949 760.817 640.815 761.65 643.149 761.65C646.449 761.65 648.632 760.2 649.699 757.3H655.849C655.049 760.1 653.549 762.333 651.349 764C649.149 765.633 646.415 766.45 643.149 766.45C640.515 766.45 638.182 765.867 636.149 764.7C634.115 763.5 632.515 761.833 631.349 759.7C630.215 757.533 629.649 755.033 629.649 752.2ZM673.479 766.45C670.879 766.45 668.529 765.867 666.429 764.7C664.329 763.5 662.679 761.833 661.479 759.7C660.279 757.533 659.679 755.033 659.679 752.2C659.679 749.4 660.296 746.917 661.529 744.75C662.763 742.583 664.446 740.917 666.579 739.75C668.713 738.583 671.096 738 673.729 738C676.363 738 678.746 738.583 680.879 739.75C683.013 740.917 684.696 742.583 685.929 744.75C687.163 746.917 687.779 749.4 687.779 752.2C687.779 755 687.146 757.483 685.879 759.65C684.613 761.817 682.879 763.5 680.679 764.7C678.513 765.867 676.113 766.45 673.479 766.45ZM673.479 761.5C674.946 761.5 676.313 761.15 677.579 760.45C678.879 759.75 679.929 758.7 680.729 757.3C681.529 755.9 681.929 754.2 681.929 752.2C681.929 750.2 681.546 748.517 680.779 747.15C680.013 745.75 678.996 744.7 677.729 744C676.463 743.3 675.096 742.95 673.629 742.95C672.163 742.95 670.796 743.3 669.529 744C668.296 744.7 667.313 745.75 666.579 747.15C665.846 748.517 665.479 750.2 665.479 752.2C665.479 755.167 666.229 757.467 667.729 759.1C669.263 760.7 671.179 761.5 673.479 761.5ZM707.314 738C709.481 738 711.414 738.45 713.114 739.35C714.847 740.25 716.197 741.583 717.164 743.35C718.131 745.117 718.614 747.25 718.614 749.75V766H712.964V750.6C712.964 748.133 712.347 746.25 711.114 744.95C709.881 743.617 708.197 742.95 706.064 742.95C703.931 742.95 702.231 743.617 700.964 744.95C699.731 746.25 699.114 748.133 699.114 750.6V766H693.414V738.45H699.114V741.6C700.047 740.467 701.231 739.583 702.664 738.95C704.131 738.317 705.681 738 707.314 738ZM723.985 752.1C723.985 749.333 724.551 746.883 725.685 744.75C726.851 742.617 728.418 740.967 730.385 739.8C732.385 738.6 734.601 738 737.035 738C739.168 738 741.051 738.433 742.685 739.3C744.351 740.167 745.635 741.217 746.535 742.45V738.45H752.285V779.1H746.535V762C745.635 763.233 744.335 764.283 742.635 765.15C740.935 766.017 739.001 766.45 736.835 766.45C734.468 766.45 732.301 765.85 730.335 764.65C728.401 763.417 726.851 761.717 725.685 759.55C724.551 757.35 723.985 754.867 723.985 752.1ZM746.535 752.2C746.535 750.3 746.135 748.65 745.335 747.25C744.568 745.85 743.551 744.783 742.285 744.05C741.018 743.317 739.651 742.95 738.185 742.95C736.718 742.95 735.351 743.317 734.085 744.05C732.818 744.75 731.785 745.8 730.985 747.2C730.218 748.567 729.835 750.2 729.835 752.1C729.835 754 730.218 755.667 730.985 757.1C731.785 758.533 732.818 759.633 734.085 760.4C735.385 761.133 736.751 761.5 738.185 761.5C739.651 761.5 741.018 761.133 742.285 760.4C743.551 759.667 744.568 758.6 745.335 757.2C746.135 755.767 746.535 754.1 746.535 752.2ZM784.721 738.45V766H779.021V762.75C778.121 763.883 776.938 764.783 775.471 765.45C774.038 766.083 772.505 766.4 770.871 766.4C768.705 766.4 766.755 765.95 765.021 765.05C763.321 764.15 761.971 762.817 760.971 761.05C760.005 759.283 759.521 757.15 759.521 754.65V738.45H765.171V753.8C765.171 756.267 765.788 758.167 767.021 759.5C768.255 760.8 769.938 761.45 772.071 761.45C774.205 761.45 775.888 760.8 777.121 759.5C778.388 758.167 779.021 756.267 779.021 753.8V738.45H784.721ZM817.492 751.55C817.492 752.583 817.426 753.517 817.292 754.35H796.242C796.409 756.55 797.226 758.317 798.692 759.65C800.159 760.983 801.959 761.65 804.092 761.65C807.159 761.65 809.326 760.367 810.592 757.8H816.742C815.909 760.333 814.392 762.417 812.192 764.05C810.026 765.65 807.326 766.45 804.092 766.45C801.459 766.45 799.092 765.867 796.992 764.7C794.926 763.5 793.292 761.833 792.092 759.7C790.926 757.533 790.342 755.033 790.342 752.2C790.342 749.367 790.909 746.883 792.042 744.75C793.209 742.583 794.826 740.917 796.892 739.75C798.992 738.583 801.392 738 804.092 738C806.692 738 809.009 738.567 811.042 739.7C813.076 740.833 814.659 742.433 815.792 744.5C816.926 746.533 817.492 748.883 817.492 751.55ZM811.542 749.75C811.509 747.65 810.759 745.967 809.292 744.7C807.826 743.433 806.009 742.8 803.842 742.8C801.876 742.8 800.192 743.433 798.792 744.7C797.392 745.933 796.559 747.617 796.292 749.75H811.542ZM828.802 742.45C829.635 741.05 830.735 739.967 832.102 739.2C833.502 738.4 835.152 738 837.052 738V743.9H835.602C833.368 743.9 831.668 744.467 830.502 745.6C829.368 746.733 828.802 748.7 828.802 751.5V766H823.102V738.45H828.802V742.45ZM853.379 752.2C853.379 749.367 853.946 746.883 855.079 744.75C856.246 742.583 857.846 740.917 859.879 739.75C861.913 738.583 864.246 738 866.879 738C870.213 738 872.963 738.8 875.129 740.4C877.329 741.967 878.813 744.217 879.579 747.15H873.429C872.929 745.783 872.129 744.717 871.029 743.95C869.929 743.183 868.546 742.8 866.879 742.8C864.546 742.8 862.679 743.633 861.279 745.3C859.913 746.933 859.229 749.233 859.229 752.2C859.229 755.167 859.913 757.483 861.279 759.15C862.679 760.817 864.546 761.65 866.879 761.65C870.179 761.65 872.363 760.2 873.429 757.3H879.579C878.779 760.1 877.279 762.333 875.079 764C872.879 765.633 870.146 766.45 866.879 766.45C864.246 766.45 861.913 765.867 859.879 764.7C857.846 763.5 856.246 761.833 855.079 759.7C853.946 757.533 853.379 755.033 853.379 752.2ZM897.21 766.45C894.61 766.45 892.26 765.867 890.16 764.7C888.06 763.5 886.41 761.833 885.21 759.7C884.01 757.533 883.41 755.033 883.41 752.2C883.41 749.4 884.026 746.917 885.26 744.75C886.493 742.583 888.176 740.917 890.31 739.75C892.443 738.583 894.826 738 897.46 738C900.093 738 902.476 738.583 904.61 739.75C906.743 740.917 908.426 742.583 909.66 744.75C910.893 746.917 911.51 749.4 911.51 752.2C911.51 755 910.876 757.483 909.61 759.65C908.343 761.817 906.61 763.5 904.41 764.7C902.243 765.867 899.843 766.45 897.21 766.45ZM897.21 761.5C898.676 761.5 900.043 761.15 901.31 760.45C902.61 759.75 903.66 758.7 904.46 757.3C905.26 755.9 905.66 754.2 905.66 752.2C905.66 750.2 905.276 748.517 904.51 747.15C903.743 745.75 902.726 744.7 901.46 744C900.193 743.3 898.826 742.95 897.36 742.95C895.893 742.95 894.526 743.3 893.26 744C892.026 744.7 891.043 745.75 890.31 747.15C889.576 748.517 889.21 750.2 889.21 752.2C889.21 755.167 889.96 757.467 891.46 759.1C892.993 760.7 894.91 761.5 897.21 761.5ZM915.245 752.1C915.245 749.333 915.811 746.883 916.945 744.75C918.111 742.617 919.678 740.967 921.645 739.8C923.645 738.6 925.861 738 928.295 738C930.095 738 931.861 738.4 933.595 739.2C935.361 739.967 936.761 741 937.795 742.3V729H943.545V766H937.795V761.85C936.861 763.183 935.561 764.283 933.895 765.15C932.261 766.017 930.378 766.45 928.245 766.45C925.845 766.45 923.645 765.85 921.645 764.65C919.678 763.417 918.111 761.717 916.945 759.55C915.811 757.35 915.245 754.867 915.245 752.1ZM937.795 752.2C937.795 750.3 937.395 748.65 936.595 747.25C935.828 745.85 934.811 744.783 933.545 744.05C932.278 743.317 930.911 742.95 929.445 742.95C927.978 742.95 926.611 743.317 925.345 744.05C924.078 744.75 923.045 745.8 922.245 747.2C921.478 748.567 921.095 750.2 921.095 752.1C921.095 754 921.478 755.667 922.245 757.1C923.045 758.533 924.078 759.633 925.345 760.4C926.645 761.133 928.011 761.5 929.445 761.5C930.911 761.5 932.278 761.133 933.545 760.4C934.811 759.667 935.828 758.6 936.595 757.2C937.395 755.767 937.795 754.1 937.795 752.2ZM953.931 734.8C952.898 734.8 952.031 734.45 951.331 733.75C950.631 733.05 950.281 732.183 950.281 731.15C950.281 730.117 950.631 729.25 951.331 728.55C952.031 727.85 952.898 727.5 953.931 727.5C954.931 727.5 955.781 727.85 956.481 728.55C957.181 729.25 957.531 730.117 957.531 731.15C957.531 732.183 957.181 733.05 956.481 733.75C955.781 734.45 954.931 734.8 953.931 734.8ZM956.731 738.45V766H951.031V738.45H956.731ZM978.115 738C980.282 738 982.215 738.45 983.915 739.35C985.648 740.25 986.998 741.583 987.965 743.35C988.932 745.117 989.415 747.25 989.415 749.75V766H983.765V750.6C983.765 748.133 983.148 746.25 981.915 744.95C980.682 743.617 978.998 742.95 976.865 742.95C974.732 742.95 973.032 743.617 971.765 744.95C970.532 746.25 969.915 748.133 969.915 750.6V766H964.215V738.45H969.915V741.6C970.848 740.467 972.032 739.583 973.465 738.95C974.932 738.317 976.482 738 978.115 738ZM1007.79 738C1009.92 738 1011.8 738.433 1013.44 739.3C1015.1 740.133 1016.4 741.183 1017.34 742.45V738.45H1023.09V766.45C1023.09 768.983 1022.55 771.233 1021.49 773.2C1020.42 775.2 1018.87 776.767 1016.84 777.9C1014.84 779.033 1012.44 779.6 1009.64 779.6C1005.9 779.6 1002.8 778.717 1000.34 776.95C997.869 775.217 996.469 772.85 996.136 769.85H1001.79C1002.22 771.283 1003.14 772.433 1004.54 773.3C1005.97 774.2 1007.67 774.65 1009.64 774.65C1011.94 774.65 1013.79 773.95 1015.19 772.55C1016.62 771.15 1017.34 769.117 1017.34 766.45V761.85C1016.37 763.15 1015.05 764.25 1013.39 765.15C1011.75 766.017 1009.89 766.45 1007.79 766.45C1005.39 766.45 1003.19 765.85 1001.19 764.65C999.219 763.417 997.652 761.717 996.486 759.55C995.352 757.35 994.786 754.867 994.786 752.1C994.786 749.333 995.352 746.883 996.486 744.75C997.652 742.617 999.219 740.967 1001.19 739.8C1003.19 738.6 1005.39 738 1007.79 738ZM1017.34 752.2C1017.34 750.3 1016.94 748.65 1016.14 747.25C1015.37 745.85 1014.35 744.783 1013.09 744.05C1011.82 743.317 1010.45 742.95 1008.99 742.95C1007.52 742.95 1006.15 743.317 1004.89 744.05C1003.62 744.75 1002.59 745.8 1001.79 747.2C1001.02 748.567 1000.64 750.2 1000.64 752.1C1000.64 754 1001.02 755.667 1001.79 757.1C1002.59 758.533 1003.62 759.633 1004.89 760.4C1006.19 761.133 1007.55 761.5 1008.99 761.5C1010.45 761.5 1011.82 761.133 1013.09 760.4C1014.35 759.667 1015.37 758.6 1016.14 757.2C1016.94 755.767 1017.34 754.1 1017.34 752.2ZM1080.56 738.45L1072.01 766H1066.01L1060.46 745.65L1054.91 766H1048.91L1040.31 738.45H1046.11L1051.86 760.6L1057.71 738.45H1063.66L1069.26 760.5L1074.96 738.45H1080.56ZM1087.72 734.8C1086.69 734.8 1085.82 734.45 1085.12 733.75C1084.42 733.05 1084.07 732.183 1084.07 731.15C1084.07 730.117 1084.42 729.25 1085.12 728.55C1085.82 727.85 1086.69 727.5 1087.72 727.5C1088.72 727.5 1089.57 727.85 1090.27 728.55C1090.97 729.25 1091.32 730.117 1091.32 731.15C1091.32 732.183 1090.97 733.05 1090.27 733.75C1089.57 734.45 1088.72 734.8 1087.72 734.8ZM1090.52 738.45V766H1084.82V738.45H1090.52ZM1104.65 743.1V758.35C1104.65 759.383 1104.89 760.133 1105.35 760.6C1105.85 761.033 1106.69 761.25 1107.85 761.25H1111.35V766H1106.85C1104.29 766 1102.32 765.4 1100.95 764.2C1099.59 763 1098.9 761.05 1098.9 758.35V743.1H1095.65V738.45H1098.9V731.6H1104.65V738.45H1111.35V743.1H1104.65ZM1130.86 738C1132.96 738 1134.82 738.45 1136.46 739.35C1138.12 740.25 1139.42 741.583 1140.36 743.35C1141.32 745.117 1141.81 747.25 1141.81 749.75V766H1136.16V750.6C1136.16 748.133 1135.54 746.25 1134.31 744.95C1133.07 743.617 1131.39 742.95 1129.26 742.95C1127.12 742.95 1125.42 743.617 1124.16 744.95C1122.92 746.25 1122.31 748.133 1122.31 750.6V766H1116.61V729H1122.31V741.65C1123.27 740.483 1124.49 739.583 1125.96 738.95C1127.46 738.317 1129.09 738 1130.86 738ZM1183.02 758.9H1168.47L1165.97 766H1160.02L1172.47 731.2H1179.07L1191.52 766H1185.52L1183.02 758.9ZM1181.42 754.25L1175.77 738.1L1170.07 754.25H1181.42ZM1202.63 731.25V766H1196.93V731.25H1202.63ZM1231.26 745.5V750.3H1210.71V745.5H1231.26ZM1237.46 752.2C1237.46 749.367 1238.03 746.883 1239.16 744.75C1240.33 742.583 1241.93 740.917 1243.96 739.75C1245.99 738.583 1248.33 738 1250.96 738C1254.29 738 1257.04 738.8 1259.21 740.4C1261.41 741.967 1262.89 744.217 1263.66 747.15H1257.51C1257.01 745.783 1256.21 744.717 1255.11 743.95C1254.01 743.183 1252.63 742.8 1250.96 742.8C1248.63 742.8 1246.76 743.633 1245.36 745.3C1243.99 746.933 1243.31 749.233 1243.31 752.2C1243.31 755.167 1243.99 757.483 1245.36 759.15C1246.76 760.817 1248.63 761.65 1250.96 761.65C1254.26 761.65 1256.44 760.2 1257.51 757.3H1263.66C1262.86 760.1 1261.36 762.333 1259.16 764C1256.96 765.633 1254.23 766.45 1250.96 766.45C1248.33 766.45 1245.99 765.867 1243.96 764.7C1241.93 763.5 1240.33 761.833 1239.16 759.7C1238.03 757.533 1237.46 755.033 1237.46 752.2ZM1275.04 742.45C1275.88 741.05 1276.98 739.967 1278.34 739.2C1279.74 738.4 1281.39 738 1283.29 738V743.9H1281.84C1279.61 743.9 1277.91 744.467 1276.74 745.6C1275.61 746.733 1275.04 748.7 1275.04 751.5V766H1269.34V738.45H1275.04V742.45ZM1286.63 752.1C1286.63 749.333 1287.2 746.883 1288.33 744.75C1289.5 742.617 1291.06 740.967 1293.03 739.8C1295.03 738.6 1297.23 738 1299.63 738C1301.8 738 1303.68 738.433 1305.28 739.3C1306.91 740.133 1308.21 741.183 1309.18 742.45V738.45H1314.93V766H1309.18V761.9C1308.21 763.2 1306.9 764.283 1305.23 765.15C1303.56 766.017 1301.66 766.45 1299.53 766.45C1297.16 766.45 1295 765.85 1293.03 764.65C1291.06 763.417 1289.5 761.717 1288.33 759.55C1287.2 757.35 1286.63 754.867 1286.63 752.1ZM1309.18 752.2C1309.18 750.3 1308.78 748.65 1307.98 747.25C1307.21 745.85 1306.2 744.783 1304.93 744.05C1303.66 743.317 1302.3 742.95 1300.83 742.95C1299.36 742.95 1298 743.317 1296.73 744.05C1295.46 744.75 1294.43 745.8 1293.63 747.2C1292.86 748.567 1292.48 750.2 1292.48 752.1C1292.48 754 1292.86 755.667 1293.63 757.1C1294.43 758.533 1295.46 759.633 1296.73 760.4C1298.03 761.133 1299.4 761.5 1300.83 761.5C1302.3 761.5 1303.66 761.133 1304.93 760.4C1306.2 759.667 1307.21 758.6 1307.98 757.2C1308.78 755.767 1309.18 754.1 1309.18 752.2ZM1333.97 743.1H1328.87V766H1323.12V743.1H1319.87V738.45H1323.12V736.5C1323.12 733.333 1323.95 731.033 1325.62 729.6C1327.32 728.133 1329.97 727.4 1333.57 727.4V732.15C1331.83 732.15 1330.62 732.483 1329.92 733.15C1329.22 733.783 1328.87 734.9 1328.87 736.5V738.45H1333.97V743.1ZM1345.67 743.1V758.35C1345.67 759.383 1345.9 760.133 1346.37 760.6C1346.87 761.033 1347.7 761.25 1348.87 761.25H1352.37V766H1347.87C1345.3 766 1343.34 765.4 1341.97 764.2C1340.6 763 1339.92 761.05 1339.92 758.35V743.1H1336.67V738.45H1339.92V731.6H1345.67V738.45H1352.37V743.1H1345.67ZM1382.87 751.55C1382.87 752.583 1382.81 753.517 1382.67 754.35H1361.62C1361.79 756.55 1362.61 758.317 1364.07 759.65C1365.54 760.983 1367.34 761.65 1369.47 761.65C1372.54 761.65 1374.71 760.367 1375.97 757.8H1382.12C1381.29 760.333 1379.77 762.417 1377.57 764.05C1375.41 765.65 1372.71 766.45 1369.47 766.45C1366.84 766.45 1364.47 765.867 1362.37 764.7C1360.31 763.5 1358.67 761.833 1357.47 759.7C1356.31 757.533 1355.72 755.033 1355.72 752.2C1355.72 749.367 1356.29 746.883 1357.42 744.75C1358.59 742.583 1360.21 740.917 1362.27 739.75C1364.37 738.583 1366.77 738 1369.47 738C1372.07 738 1374.39 738.567 1376.42 739.7C1378.46 740.833 1380.04 742.433 1381.17 744.5C1382.31 746.533 1382.87 748.883 1382.87 751.55ZM1376.92 749.75C1376.89 747.65 1376.14 745.967 1374.67 744.7C1373.21 743.433 1371.39 742.8 1369.22 742.8C1367.26 742.8 1365.57 743.433 1364.17 744.7C1362.77 745.933 1361.94 747.617 1361.67 749.75H1376.92ZM1386.58 752.1C1386.58 749.333 1387.15 746.883 1388.28 744.75C1389.45 742.617 1391.02 740.967 1392.98 739.8C1394.98 738.6 1397.2 738 1399.63 738C1401.43 738 1403.2 738.4 1404.93 739.2C1406.7 739.967 1408.1 741 1409.13 742.3V729H1414.88V766H1409.13V761.85C1408.2 763.183 1406.9 764.283 1405.23 765.15C1403.6 766.017 1401.72 766.45 1399.58 766.45C1397.18 766.45 1394.98 765.85 1392.98 764.65C1391.02 763.417 1389.45 761.717 1388.28 759.55C1387.15 757.35 1386.58 754.867 1386.58 752.1ZM1409.13 752.2C1409.13 750.3 1408.73 748.65 1407.93 747.25C1407.17 745.85 1406.15 744.783 1404.88 744.05C1403.62 743.317 1402.25 742.95 1400.78 742.95C1399.32 742.95 1397.95 743.317 1396.68 744.05C1395.42 744.75 1394.38 745.8 1393.58 747.2C1392.82 748.567 1392.43 750.2 1392.43 752.1C1392.43 754 1392.82 755.667 1393.58 757.1C1394.38 758.533 1395.42 759.633 1396.68 760.4C1397.98 761.133 1399.35 761.5 1400.78 761.5C1402.25 761.5 1403.62 761.133 1404.88 760.4C1406.15 759.667 1407.17 758.6 1407.93 757.2C1408.73 755.767 1409.13 754.1 1409.13 752.2ZM1442.01 743.1V758.35C1442.01 759.383 1442.24 760.133 1442.71 760.6C1443.21 761.033 1444.04 761.25 1445.21 761.25H1448.71V766H1444.21C1441.64 766 1439.67 765.4 1438.31 764.2C1436.94 763 1436.26 761.05 1436.26 758.35V743.1H1433.01V738.45H1436.26V731.6H1442.01V738.45H1448.71V743.1H1442.01ZM1452.06 752.1C1452.06 749.333 1452.63 746.883 1453.76 744.75C1454.93 742.617 1456.49 740.967 1458.46 739.8C1460.46 738.6 1462.66 738 1465.06 738C1467.23 738 1469.11 738.433 1470.71 739.3C1472.34 740.133 1473.64 741.183 1474.61 742.45V738.45H1480.36V766H1474.61V761.9C1473.64 763.2 1472.33 764.283 1470.66 765.15C1468.99 766.017 1467.09 766.45 1464.96 766.45C1462.59 766.45 1460.43 765.85 1458.46 764.65C1456.49 763.417 1454.93 761.717 1453.76 759.55C1452.63 757.35 1452.06 754.867 1452.06 752.1ZM1474.61 752.2C1474.61 750.3 1474.21 748.65 1473.41 747.25C1472.64 745.85 1471.63 744.783 1470.36 744.05C1469.09 743.317 1467.73 742.95 1466.26 742.95C1464.79 742.95 1463.43 743.317 1462.16 744.05C1460.89 744.75 1459.86 745.8 1459.06 747.2C1458.29 748.567 1457.91 750.2 1457.91 752.1C1457.91 754 1458.29 755.667 1459.06 757.1C1459.86 758.533 1460.89 759.633 1462.16 760.4C1463.46 761.133 1464.83 761.5 1466.26 761.5C1467.73 761.5 1469.09 761.133 1470.36 760.4C1471.63 759.667 1472.64 758.6 1473.41 757.2C1474.21 755.767 1474.61 754.1 1474.61 752.2ZM1497.85 766.45C1495.68 766.45 1493.73 766.067 1492 765.3C1490.3 764.5 1488.95 763.433 1487.95 762.1C1486.95 760.733 1486.41 759.217 1486.35 757.55H1492.25C1492.35 758.717 1492.9 759.7 1493.9 760.5C1494.93 761.267 1496.21 761.65 1497.75 761.65C1499.35 761.65 1500.58 761.35 1501.45 760.75C1502.35 760.117 1502.8 759.317 1502.8 758.35C1502.8 757.317 1502.3 756.55 1501.3 756.05C1500.33 755.55 1498.78 755 1496.65 754.4C1494.58 753.833 1492.9 753.283 1491.6 752.75C1490.3 752.217 1489.16 751.4 1488.2 750.3C1487.26 749.2 1486.8 747.75 1486.8 745.95C1486.8 744.483 1487.23 743.15 1488.1 741.95C1488.96 740.717 1490.2 739.75 1491.8 739.05C1493.43 738.35 1495.3 738 1497.4 738C1500.53 738 1503.05 738.8 1504.95 740.4C1506.88 741.967 1507.91 744.117 1508.05 746.85H1502.35C1502.25 745.617 1501.75 744.633 1500.85 743.9C1499.95 743.167 1498.73 742.8 1497.2 742.8C1495.7 742.8 1494.55 743.083 1493.75 743.65C1492.95 744.217 1492.55 744.967 1492.55 745.9C1492.55 746.633 1492.81 747.25 1493.35 747.75C1493.88 748.25 1494.53 748.65 1495.3 748.95C1496.06 749.217 1497.2 749.567 1498.7 750C1500.7 750.533 1502.33 751.083 1503.6 751.65C1504.9 752.183 1506.01 752.983 1506.95 754.05C1507.88 755.117 1508.36 756.533 1508.4 758.3C1508.4 759.867 1507.96 761.267 1507.1 762.5C1506.23 763.733 1505 764.7 1503.4 765.4C1501.83 766.1 1499.98 766.45 1497.85 766.45ZM1525.46 752.25L1538.16 766H1530.46L1520.26 754.15V766H1514.56V729H1520.26V750.5L1530.26 738.45H1538.16L1525.46 752.25ZM1552.24 766.45C1550.08 766.45 1548.13 766.067 1546.39 765.3C1544.69 764.5 1543.34 763.433 1542.34 762.1C1541.34 760.733 1540.81 759.217 1540.74 757.55H1546.64C1546.74 758.717 1547.29 759.7 1548.29 760.5C1549.33 761.267 1550.61 761.65 1552.14 761.65C1553.74 761.65 1554.98 761.35 1555.84 760.75C1556.74 760.117 1557.19 759.317 1557.19 758.35C1557.19 757.317 1556.69 756.55 1555.69 756.05C1554.73 755.55 1553.18 755 1551.04 754.4C1548.98 753.833 1547.29 753.283 1545.99 752.75C1544.69 752.217 1543.56 751.4 1542.59 750.3C1541.66 749.2 1541.19 747.75 1541.19 745.95C1541.19 744.483 1541.63 743.15 1542.49 741.95C1543.36 740.717 1544.59 739.75 1546.19 739.05C1547.83 738.35 1549.69 738 1551.79 738C1554.93 738 1557.44 738.8 1559.34 740.4C1561.28 741.967 1562.31 744.117 1562.44 746.85H1556.74C1556.64 745.617 1556.14 744.633 1555.24 743.9C1554.34 743.167 1553.13 742.8 1551.59 742.8C1550.09 742.8 1548.94 743.083 1548.14 743.65C1547.34 744.217 1546.94 744.967 1546.94 745.9C1546.94 746.633 1547.21 747.25 1547.74 747.75C1548.28 748.25 1548.93 748.65 1549.69 748.95C1550.46 749.217 1551.59 749.567 1553.09 750C1555.09 750.533 1556.73 751.083 1557.99 751.65C1559.29 752.183 1560.41 752.983 1561.34 754.05C1562.28 755.117 1562.76 756.533 1562.79 758.3C1562.79 759.867 1562.36 761.267 1561.49 762.5C1560.63 763.733 1559.39 764.7 1557.79 765.4C1556.23 766.1 1554.38 766.45 1552.24 766.45Z" fill="#002145"/>
</g>
<path d="M625.448 424C625.448 409.667 628.115 397.083 633.448 386.25C638.948 375.417 646.365 367.083 655.698 361.25C665.032 355.417 675.448 352.5 686.948 352.5C696.782 352.5 705.365 354.5 712.698 358.5C720.198 362.5 725.948 367.75 729.948 374.25V354.5H772.698V494H729.948V474.25C725.782 480.75 719.948 486 712.448 490C705.115 494 696.532 496 686.698 496C675.365 496 665.032 493.083 655.698 487.25C646.365 481.25 638.948 472.833 633.448 462C628.115 451 625.448 438.333 625.448 424ZM729.948 424.25C729.948 413.583 726.948 405.167 720.948 399C715.115 392.833 707.948 389.75 699.448 389.75C690.948 389.75 683.698 392.833 677.698 399C671.865 405 668.948 413.333 668.948 424C668.948 434.667 671.865 443.167 677.698 449.5C683.698 455.667 690.948 458.75 699.448 458.75C707.948 458.75 715.115 455.667 720.948 449.5C726.948 443.333 729.948 434.917 729.948 424.25ZM981.626 353C998.959 353 1012.71 358.25 1022.88 368.75C1033.21 379.25 1038.38 393.833 1038.38 412.5V494H995.876V418.25C995.876 409.25 993.459 402.333 988.626 397.5C983.959 392.5 977.459 390 969.126 390C960.793 390 954.209 392.5 949.376 397.5C944.709 402.333 942.376 409.25 942.376 418.25V494H899.876V418.25C899.876 409.25 897.459 402.333 892.626 397.5C887.959 392.5 881.459 390 873.126 390C864.793 390 858.209 392.5 853.376 397.5C848.709 402.333 846.376 409.25 846.376 418.25V494H803.626V354.5H846.376V372C850.709 366.167 856.376 361.583 863.376 358.25C870.376 354.75 878.293 353 887.126 353C897.626 353 906.959 355.25 915.126 359.75C923.459 364.25 929.959 370.667 934.626 379C939.459 371.333 946.043 365.083 954.376 360.25C962.709 355.417 971.793 353 981.626 353ZM1089.77 340C1082.27 340 1076.11 337.833 1071.27 333.5C1066.61 329 1064.27 323.5 1064.27 317C1064.27 310.333 1066.61 304.833 1071.27 300.5C1076.11 296 1082.27 293.75 1089.77 293.75C1097.11 293.75 1103.11 296 1107.77 300.5C1112.61 304.833 1115.02 310.333 1115.02 317C1115.02 323.5 1112.61 329 1107.77 333.5C1103.11 337.833 1097.11 340 1089.77 340ZM1111.02 354.5V494H1068.27V354.5H1111.02ZM1212 390H1189V494H1146.25V390H1130.75V354.5H1146.25V350.5C1146.25 333.333 1151.17 320.333 1161 311.5C1170.84 302.5 1185.25 298 1204.25 298C1207.42 298 1209.75 298.083 1211.25 298.25V334.5C1203.09 334 1197.34 335.167 1194 338C1190.67 340.833 1189 345.917 1189 353.25V354.5H1212V390ZM1374.59 354.5L1287.09 560.25H1241.09L1273.09 489.25L1216.34 354.5H1264.09L1296.34 441.75L1328.34 354.5H1374.59Z" fill="#002145"/>
<path d="M712.776 652.25C727.943 652.25 740.693 648.417 751.026 640.75C761.36 633.083 767.61 622.583 769.776 609.25H774.776C772.443 623.417 765.776 634.917 754.776 643.75C743.943 652.417 729.943 656.75 712.776 656.75C700.276 656.75 689.11 654 679.276 648.5C669.443 643 661.693 635 656.026 624.5C650.526 614 647.776 601.667 647.776 587.5C647.776 573.333 650.526 561 656.026 550.5C661.693 540 669.443 532 679.276 526.5C689.11 521 700.276 518.25 712.776 518.25C725.943 518.25 737.193 521.083 746.526 526.75C755.86 532.25 762.86 539.417 767.526 548.25C772.36 557.083 774.776 566.417 774.776 576.25C774.776 582.25 774.693 586.75 774.526 589.75H652.776C652.943 603.583 655.776 615.167 661.276 624.5C666.943 633.833 674.276 640.833 683.276 645.5C692.276 650 702.11 652.25 712.776 652.25ZM712.776 522.75C702.11 522.75 692.276 525.083 683.276 529.75C674.276 534.25 666.943 541.167 661.276 550.5C655.776 559.833 652.943 571.417 652.776 585.25H770.276C771.11 571.417 768.86 559.833 763.526 550.5C758.36 541.167 751.193 534.25 742.026 529.75C733.026 525.083 723.276 522.75 712.776 522.75ZM869.759 652.25C884.925 652.25 897.675 648.417 908.009 640.75C918.342 633.083 924.592 622.583 926.759 609.25H931.759C929.425 623.417 922.759 634.917 911.759 643.75C900.925 652.417 886.925 656.75 869.759 656.75C857.259 656.75 846.092 654 836.259 648.5C826.425 643 818.675 635 813.009 624.5C807.509 614 804.759 601.667 804.759 587.5C804.759 573.333 807.509 561 813.009 550.5C818.675 540 826.425 532 836.259 526.5C846.092 521 857.259 518.25 869.759 518.25C882.925 518.25 894.175 521.083 903.509 526.75C912.842 532.25 919.842 539.417 924.509 548.25C929.342 557.083 931.759 566.417 931.759 576.25C931.759 582.25 931.675 586.75 931.509 589.75H809.759C809.925 603.583 812.759 615.167 818.259 624.5C823.925 633.833 831.259 640.833 840.259 645.5C849.259 650 859.092 652.25 869.759 652.25ZM869.759 522.75C859.092 522.75 849.259 525.083 840.259 529.75C831.259 534.25 823.925 541.167 818.259 550.5C812.759 559.833 809.925 571.417 809.759 585.25H927.259C928.092 571.417 925.842 559.833 920.509 550.5C915.342 541.167 908.175 534.25 899.009 529.75C890.009 525.083 880.259 522.75 869.759 522.75ZM1035.24 655L972.991 591.75V655H967.991V470H972.991V581.75L1033.99 520H1041.24L974.741 587L1042.24 655H1035.24ZM1110.12 656.75C1095.29 656.75 1083.29 653.75 1074.12 647.75C1065.12 641.75 1059.87 632.667 1058.37 620.5H1063.37C1064.37 630.5 1068.79 638.333 1076.62 644C1084.62 649.5 1095.87 652.25 1110.37 652.25C1117.71 652.25 1124.12 650.833 1129.62 648C1135.29 645.167 1139.62 641.417 1142.62 636.75C1145.62 631.917 1147.12 626.75 1147.12 621.25C1147.12 615.25 1145.37 610.417 1141.87 606.75C1138.54 602.917 1134.29 600 1129.12 598C1124.12 596 1117.21 593.833 1108.37 591.5C1098.54 589 1090.54 586.5 1084.37 584C1078.37 581.5 1073.21 577.667 1068.87 572.5C1064.71 567.333 1062.62 560.5 1062.62 552C1062.62 546 1064.46 540.417 1068.12 535.25C1071.79 530.083 1076.79 526 1083.12 523C1089.62 519.833 1096.87 518.25 1104.87 518.25C1118.54 518.25 1129.54 521.667 1137.87 528.5C1146.21 535.333 1150.71 544.833 1151.37 557H1146.37C1145.87 547 1142.04 538.833 1134.87 532.5C1127.87 526 1117.87 522.75 1104.87 522.75C1097.87 522.75 1091.54 524.083 1085.87 526.75C1080.21 529.417 1075.71 533 1072.37 537.5C1069.21 542 1067.62 546.833 1067.62 552C1067.62 559.333 1069.54 565.25 1073.37 569.75C1077.21 574.25 1081.87 577.583 1087.37 579.75C1093.04 581.917 1100.54 584.25 1109.87 586.75C1119.37 589.417 1126.79 591.833 1132.12 594C1137.62 596.167 1142.29 599.5 1146.12 604C1149.96 608.333 1151.87 614.083 1151.87 621.25C1151.87 627.917 1150.04 634 1146.37 639.5C1142.71 644.833 1137.71 649.083 1131.37 652.25C1125.04 655.25 1117.96 656.75 1110.12 656.75Z" fill="#002145"/>
<path d="M423.712 519C413.579 500.333 398.913 486.2 379.713 476.6C361.046 466.467 338.913 461.4 313.313 461.4C269.046 461.4 233.579 476.067 206.912 505.4C180.246 534.2 166.913 572.867 166.913 621.4C166.913 673.133 180.779 713.667 208.513 743C236.779 771.8 275.446 786.2 324.513 786.2C358.113 786.2 386.379 777.667 409.313 760.6C432.779 743.533 449.846 719 460.513 687H286.913V586.2H584.513V713.4C574.379 747.533 557.046 779.267 532.513 808.6C508.513 837.933 477.846 861.667 440.513 879.8C403.179 897.933 361.046 907 314.113 907C258.646 907 209.046 895 165.313 871C122.113 846.467 88.2458 812.6 63.7125 769.4C39.7125 726.2 27.7125 676.867 27.7125 621.4C27.7125 565.933 39.7125 516.6 63.7125 473.4C88.2458 429.667 122.113 395.8 165.313 371.8C208.513 347.267 257.846 335 313.313 335C380.513 335 437.046 351.267 482.913 383.8C529.313 416.333 559.979 461.4 574.913 519H423.712Z" fill="url(#paint0_linear_175_148)"/>
<defs>
<linearGradient id="paint0_linear_175_148" x1="670.651" y1="255.793" x2="-75.4243" y2="255.793" gradientUnits="userSpaceOnUse">
<stop stop-color="#8BCA86"/>
<stop offset="0.5" stop-color="#EC9494"/>
<stop offset="1" stop-color="#7CC2FF"/>
</linearGradient>
</defs>
</svg>