<svg width="18" height="10" viewBox="0 0 18 10" fill="none" xmlns="http://www.w3.org/2000/svg">
<path d="M17.8312 1.09863L9.4445 9.80895C9.32656 9.93128 9.16669 10 9 10C8.83331 10 8.67344 9.93128 8.55551 9.80895L0.168817 1.09863C0.0577101 0.974787 -0.00277714 0.810993 9.79962e-05 0.64175C0.00297313 0.472508 0.0689862 0.311031 0.18423 0.19134C0.299474 0.0716492 0.454951 0.00308786 0.617905 0.000101777C0.78086 -0.00288431 0.938569 0.0599379 1.05781 0.175332L9 8.42292L16.9422 0.175332C17.0614 0.0599379 17.2191 -0.00288431 17.3821 0.000101777C17.545 0.00308786 17.7005 0.0716492 17.8158 0.19134C17.931 0.311031 17.997 0.472508 17.9999 0.64175C18.0028 0.810993 17.9423 0.974787 17.8312 1.09863Z" fill="black"/>
</svg>
